<svg
  viewBox="0 0 100 100"
  fill="none"
  xmlns="http://www.w3.org/2000/svg"
>
  <rect width="100" height="100" rx="28" fill="url(#logo-gradient)" />
  <rect x="25" y="22" width="50" height="36" rx="6" fill="#1E2235" stroke="#2D324F" strokeWidth="2" />
  <rect x="29" y="26" width="42" height="28" rx="3" fill="#0F111A" />
  <path
    d="M32 46L40 38L48 42L56 34L64 38L68 28"
    stroke="#00F2FF"
    strokeWidth="2"
    strokeLinecap="round"
    strokeLinejoin="round"
    opacity="0.9"
  />
  <circle cx="68" cy="28" r="2" fill="#00F2FF" />
  <g transform="translate(56, 30) scale(0.8)">
    <rect width="12" height="12" rx="2" fill="white" />
    <rect x="2" y="2" width="3" height="3" fill="#0F111A" />
    <rect x="7" y="2" width="3" height="3" fill="#0F111A" />
    <rect x="2" y="7" width="3" height="3" fill="#0F111A" />
    <rect x="7" y="7" width="3" height="5" rx="1" fill="#0F111A" />
  </g>
  <rect x="22" y="48" width="26" height="36" rx="5" fill="#2D324F" stroke="#1E2235" strokeWidth="1.5" />
  <rect x="26" y="53" width="18" height="8" rx="1.5" fill="#0F111A" />
  <text x="28" y="59" fill="#00F2FF" style="font-size: 4.5px; font-weight: bold; font-family: monospace;">88.50</text>
  <rect x="26" y="65" width="4" height="4" rx="1" fill="#FF5C5C" />
  <rect x="33" y="65" width="4" height="4" rx="1" fill="#4E5685" />
  <rect x="40" y="65" width="4" height="4" rx="1" fill="#FFB800" />
  <rect x="26" y="72" width="4" height="4" rx="1" fill="#4E5685" />
  <rect x="33" y="72" width="4" height="4" rx="1" fill="#4E5685" />
  <rect x="40" y="72" width="4" height="9" rx="1.5" fill="#FFB800" />
  <rect x="26" y="79" width="4" height="4" rx="1" fill="#4E5685" />
  <rect x="33" y="79" width="4" height="4" rx="1" fill="#4E5685" />
  <g transform="translate(58, 68)">
    <circle cx="10" cy="10" r="11" fill="#FFD700" stroke="#E6B800" strokeWidth="1.5" />
    <text x="7" y="14" fill="#B38F00" style="font-size: 11px; font-weight: bold;">$</text>
  </g>
  <g transform="translate(68, 75)">
    <circle cx="10" cy="10" r="11" fill="#FFD700" stroke="#E6B800" strokeWidth="1.5" />
    <text x="7" y="14" fill="#B38F00" style="font-size: 11px; font-weight: bold;">$</text>
  </g>
  <defs>
    <linearGradient id="logo-gradient" x1="0" y1="0" x2="100" y2="100" gradientUnits="userSpaceOnUse">
      <stop stop-color="#7C3AED" />
      <stop offset="1" stop-color="#4F46E5" />
    </linearGradient>
  </defs>
</svg>
